<?xml version="1.0" encoding="UTF-8"?>
<!DOCTYPE svg PUBLIC "-//W3C//DTD SVG 1.1//EN" "http://www.w3.org/Graphics/SVG/1.1/DTD/svg11.dtd">
<!-- Creator: CorelDRAW 2018 (64-Bit) -->
<svg xmlns="http://www.w3.org/2000/svg" xml:space="preserve" width="75mm" height="85mm" version="1.1" style="shape-rendering:geometricPrecision; text-rendering:geometricPrecision; image-rendering:optimizeQuality; fill-rule:evenodd; clip-rule:evenodd"
viewBox="0 0 7500 8500"
 xmlns:xlink="http://www.w3.org/1999/xlink"
 xmlns:x="http://ns.adobe.com/Extensibility/1.0/"
 xmlns:i="http://ns.adobe.com/AdobeIllustrator/10.0/"
 xmlns:graph="http://ns.adobe.com/Graphs/1.0/"
 i:viewOrigin="122.2236 484.8311"
 i:rulerOrigin="342 252"
 i:pageBounds="-342 1044 954 -252"
 xmlns:a="http://ns.adobe.com/AdobeSVGViewerExtensions/3.0/"
 enable-background="new 0 0 281.977 319.031">
 <defs>
  <style type="text/css">
   <![CDATA[
    .str0 {stroke:black;stroke-width:26.46;stroke-linecap:round;stroke-linejoin:round;stroke-miterlimit:22.9256}
    .fil3 {fill:none}
    .fil0 {fill:#AF121D}
    .fil2 {fill:#FFD500}
    .fil1 {fill:white}
    .fil4 {fill:black;fill-rule:nonzero}
   ]]>
  </style>
 </defs>
 <g id="Layer_x0020_1">
  <metadata id="CorelCorpID_0Corel-Layer"/>
  <g id="_1670281104384">
   <path class="fil0" d="M2463.95 8200.98c75.25,30.56 148.11,56.44 218.65,79.93 338.56,115.2 677.12,173.96 1018.01,176.34 7.04,0 16.46,0 23.52,0l49.38 0.01c9.39,0 16.46,0 25.88,0 338.56,-2.35 677.12,-61.12 1018.01,-176.34 68.18,-23.52 143.43,-49.37 218.65,-79.93 1445.92,-507.81 2257.05,-1619.91 2431.04,-3333.86l0 -4824.45 -7434.18 0 0 4824.44c173.99,1713.95 982.77,2826.04 2431.04,3333.86z" i:knockout="Off"/>
   <g>
    <g>
     <path class="fil1" d="M6018.79 1286.41c-87,-61.12 -268.02,-84.64 -536.05,-72.89l-75.22 61.15 0 1297.78c150.47,-16.46 296.23,-18.79 439.66,-7.04 4.71,0 11.75,0 16.46,0 -4.71,7.04 -9.39,11.75 -18.79,11.75 -51.73,7.06 -87,35.27 -103.45,87l0 -61.12 -618.36 166.93c-82.26,-157.53 -166.93,-293.87 -251.57,-411.45 -124.59,-169.25 -286.83,-293.87 -484.32,-369.12 0,-2.35 0,-2.35 -2.35,-2.35l-2.33 -0.02c0,-2.33 0,-2.33 2.33,-2.33 7.06,-7.06 16.46,-16.48 25.88,-25.88 188.07,-185.74 282.13,-413.78 282.13,-679.48 0,-265.67 -94.06,-491.36 -282.13,-679.45 -188.09,-188.09 -413.81,-282.13 -679.5,-282.13 -265.67,0 -493.71,94.03 -681.8,282.13 -185.74,188.09 -279.77,413.78 -279.77,679.45 0,265.69 94.03,493.74 279.77,679.48 9.42,9.39 18.81,18.79 28.23,28.2 0,0 0,0 2.33,0 -2.33,0 -2.33,0 -4.71,2.35 -197.49,75.22 -357.37,199.84 -481.97,369.12 -87,117.55 -171.64,253.92 -253.92,411.45l-615.98 -166.88 -82.29 -216.3c-2.33,-14.13 -4.68,-28.23 -7.04,-42.33 0,-14.13 -4.71,-25.88 -14.1,-35.27 -21.17,-18.81 -39.98,-30.56 -65.83,-32.94 -4.71,-2.33 -11.77,-2.33 -16.48,0 0,-197.49 0,-366.74 0,-507.81l536.05 37.62 0 -228.07 -536.05 30.56 0 -317.4 442.01 44.66 0 -228.04 -442.01 42.31 0 -84.64 35.27 -340.92 -225.72 0 35.27 340.92 0 84.64 -442.01 -42.31 0 228.04 442.01 -44.66 0 317.39 -536.05 -30.56 0 228.07 536.05 -37.62c0,148.11 0,326.81 0,531.36 -14.1,-2.33 -30.56,-4.71 -47.02,-4.71 -18.81,7.04 -32.91,21.14 -42.31,37.62 -7.06,14.1 -7.06,32.91 0,56.41 -18.81,14.1 -30.59,35.27 -35.27,58.79 -9.39,35.27 -2.35,65.83 21.14,94.03 -11.75,16.46 -14.1,39.95 -4.71,72.89 4.71,14.1 18.81,28.2 37.6,39.95 -7.04,28.23 -2.35,51.75 16.48,63.47 11.75,9.39 28.2,14.13 54.05,14.13 0,966.28 0,2386.36 0,4257.83 54.08,37.6 105.81,37.6 155.18,0 0,-1815.04 0,-3202.2 0,-4166.13 61.15,30.56 124.62,91.68 185.74,181.03l0 1316.62 543.1 0.02 -141.05 2111.3c155.18,296.25 376.16,434.95 658.31,416.14l-21.17 491.38c51.73,21.14 112.84,37.6 185.74,54.05 -58.79,211.61 -49.37,352.66 28.2,416.14 -2.35,7.06 -2.35,11.77 -2.35,18.81 -2.33,23.52 7.06,37.62 23.52,47.02 2.35,0 4.71,0 9.39,2.35 2.35,0 9.39,0 18.81,4.71 11.75,2.35 28.23,2.35 49.37,-2.33 21.14,-2.35 49.37,-14.13 84.64,-35.27 32.91,-18.81 58.79,-42.33 75.25,-68.18 14.08,-25.85 30.56,-49.37 47.02,-75.22 16.46,-25.88 32.91,-72.89 47.02,-143.43 9.39,-37.6 14.1,-72.87 18.79,-101.1 2.35,0 2.35,0 4.71,0 134.01,14.1 260.96,16.46 378.51,11.75 117.55,4.68 244.53,2.35 380.89,-11.75 0,0 2.35,0 4.71,0 2.33,28.2 9.39,63.47 18.81,101.1 14.1,70.54 28.2,117.55 44.66,143.43 16.46,25.88 32.91,49.37 49.37,75.22 14.13,25.85 39.98,49.37 75.25,68.18 35.27,21.14 63.47,32.91 84.64,35.27 21.17,4.68 37.62,4.68 47.02,2.33 11.75,-4.71 18.81,-4.71 21.17,-4.71 2.33,-2.35 4.71,-2.35 9.39,-2.35 16.46,-9.39 23.52,-23.52 23.52,-47.02 0,-7.04 -2.35,-11.75 -2.35,-18.81 75.25,-63.47 84.67,-204.52 28.23,-416.14 70.54,-16.48 131.66,-32.91 185.74,-54.05l-21.17 -491.38c282.15,18.81 500.78,-119.88 658.31,-416.14l-141.05 -2111.3 543.08 0 0 -1504.71 279.8 -39.95c87,-30.56 141.08,-70.54 159.86,-119.91 11.75,-39.98 21.17,-68.18 25.88,-94.03 138.72,-9.39 282.13,-7.06 430.24,9.37l0 -1297.78 -75.22 -61.15c-270.39,-11.75 -451.42,11.74 -543.12,72.86z" i:knockout="Off"/>
    </g>
   </g>
   <g>
    <g>
     <polygon class="fil2" points="5482.74,1213.52 5407.52,1274.67 5407.52,2572.45 5482.74,2511.33 " i:knockout="Off"/>
     <path class="fil2" d="M6018.79 1286.41c-87,-61.12 -268.02,-84.64 -536.05,-72.89l0 1297.81c129.33,-23.52 260.96,-28.2 392.64,-16.46 0,-9.39 0,-18.81 0,-25.88 -4.71,-70.54 21.14,-115.2 70.54,-138.72 11.75,-32.89 25.88,-42.33 44.66,-30.56 9.39,-16.46 18.81,-23.52 28.2,-25.88l0.01 -987.42z" i:knockout="Off"/>
     <polygon class="fil2" points="6637.12,1274.66 6561.9,1213.51 6561.9,2511.32 6637.12,2572.44 " i:knockout="Off"/>
     <g>
      <path class="fil2" d="M6561.9 1213.52c-270.38,-11.75 -451.41,11.77 -543.11,72.89l0 987.45c11.77,0 21.17,9.39 35.27,25.88 2.33,9.39 7.04,18.81 9.39,28.2 16.46,14.1 47.02,42.31 94.03,84.64 7.04,4.71 18.81,32.91 35.27,77.6 122.26,-7.06 246.88,0 369.12,21.14l0 -1297.8 0.03 0zm0 0l0 0 0 0z" i:knockout="Off"/>
     </g>
     <path class="fil2" d="M6637.12 2572.45l-75.22 -61.12c-122.26,-21.14 -246.86,-28.2 -369.12,-21.14 4.71,16.46 9.39,32.91 14.13,51.73 0,4.71 0,11.77 0,21.17 138.69,-9.43 282.12,-7.08 430.21,9.36z" i:knockout="Off"/>
     <path class="fil2" d="M5482.74 2511.33l-75.22 61.12c150.47,-16.46 296.23,-18.79 439.66,-7.04 4.71,0 11.75,0 16.46,0 9.39,-14.1 11.75,-37.62 11.75,-70.54 -131.69,-11.75 -263.32,-7.04 -392.65,16.46z" i:knockout="Off"/>
     <g>
      <path class="fil2" d="M3702.97 423.55l58.79 0 0 87.02 89.32 0 0 56.44 -89.32 0 0 84.64c4.68,4.71 9.37,7.04 16.46,14.1 11.75,11.75 18.81,28.2 18.81,44.66 0,14.1 -2.35,25.85 -9.39,37.6 4.71,4.71 11.75,14.13 18.81,23.52 148.11,-110.49 279.77,-115.2 397.32,-14.1 82.29,98.74 72.89,242.17 -28.2,423.2l-21.17 148.14 -4.71 23.5c-2.33,9.39 -2.33,18.81 -4.71,28.23 30.59,49.37 23.52,126.95 -18.79,235.11 -16.48,37.6 -32.91,56.41 -49.37,49.37 -4.71,11.75 -9.39,23.52 -16.46,32.94l0 209.23c117.55,14.1 223.36,39.95 322.1,79.93l28.2 -28.2c188.07,-185.74 282.13,-413.78 282.13,-679.48 0,-265.67 -94.06,-491.36 -282.13,-679.45 -188.09,-188.09 -413.81,-282.13 -679.5,-282.13 -265.67,0 -493.71,94.03 -681.8,282.13 -185.74,188.09 -279.77,413.78 -279.77,679.45 0,265.69 94.03,493.74 279.77,679.48l30.56 28.2c98.74,-37.6 206.9,-65.83 322.08,-79.93l0 -209.23c-4.68,-9.42 -9.37,-21.17 -14.08,-32.94 -16.48,7.06 -32.94,-11.75 -49.4,-49.37 -44.66,-108.14 -49.37,-185.74 -18.79,-235.11 -2.35,-9.42 -4.71,-18.81 -4.71,-28.23l-4.71 -23.5 -21.17 -148.14c-103.45,-181.03 -112.84,-324.46 -28.2,-423.2 115.2,-101.1 246.86,-96.39 395,14.1 7.04,-9.39 14.1,-18.79 21.14,-23.52 -7.04,-11.75 -11.75,-23.5 -9.39,-37.6 -2.33,-16.48 4.71,-32.94 18.81,-44.66 4.71,-7.06 9.39,-9.39 16.48,-14.1l0 -84.64 -89.33 0 0 -56.44 89.35 0 0 -87.02 -0.03 0zm0 0l0 0 0 0z" i:knockout="Off"/>
     </g>
     <path class="fil2" d="M1979.61 1335.78l0 -228.04 -442.01 42.31 0 -84.64 35.27 -340.92 -225.72 0 35.27 340.92 0 84.64 -441.99 -42.31 0 228.04 442.01 -44.66 0 317.39 -536.05 -30.56 0 228.07 536.05 -37.62c0,148.11 0,326.81 0,531.36 44.66,7.04 82.29,11.75 108.16,18.81 4.71,-28.2 21.14,-42.33 47.02,-42.33 0,-197.49 0,-366.74 0,-507.81l536.05 37.62 0 -228.07 -536.05 30.56 0 -317.42 441.99 44.66z" i:knockout="Off"/>
     <g>
      <path class="fil2" d="M3091.68 2003.51l-16.46 -14.1c-197.49,75.22 -357.37,199.84 -481.97,369.12l710.04 712.39 425.56 -427.88 -637.17 -639.53 -138.72 192.78 197.49 197.49 98.72 -98.74 105.81 105.81 -98.74 98.74 221.01 221.01 -103.45 103.45 -218.68 -221.01 -98.74 96.39 -105.81 -105.81 98.74 -98.74 -197.49 -195.13 101.1 -103.45 138.76 -192.79zm0 0l0 0 0 0z" i:knockout="Off"/>
     </g>
     <polygon class="fil2" points="3303.29,3070.89 3303.29,3557.56 3303.29,6959.6 4161.44,6959.61 4161.44,3557.57 3942.76,3668.06 3942.76,3818.56 3804.04,3818.55 3804.04,4128.88 3660.64,4128.88 3658.28,4128.88 3658.28,5083.42 3660.64,5083.42 3804.04,5083.42 3804.04,5360.84 3942.76,5360.84 3942.76,5511.31 3804.04,5511.3 3804.04,5821.66 3660.64,5821.66 3660.64,5511.3 3521.94,5511.3 3521.94,5360.83 3658.28,5360.84 3658.28,5083.42 3658.28,4128.88 3658.28,3818.55 3521.94,3818.55 3521.94,3668.05 3660.64,3668.06 3660.64,3388.29 3804.04,3388.29 3804.04,3668.06 3942.76,3668.06 4161.44,3557.57 4161.44,3070.9 " i:knockout="Off"/>
     <path class="fil2" d="M1537.62 2824.04c0,-44.66 0,-89.35 0,-131.66 -32.91,16.46 -68.18,28.2 -96.39,35.27 -7.06,2.35 -14.1,2.35 -21.17,2.35 -14.13,2.35 -28.2,2.35 -37.62,2.35 0,966.28 0,2386.36 0,4257.83 54.08,37.6 105.81,37.6 155.18,0 0,-1815.05 0,-3202.19 0,-4166.14z" i:knockout="Off"/>
     <path class="fil2" d="M4384.78 1987.03l-16.46 16.48 143.4 192.78 101.1 103.45 -197.49 195.13 98.77 98.74 -108.14 105.81 -96.41 -96.39 -221.01 221.01 -101.1 -103.45 218.65 -221.01 -96.41 -98.74 105.81 -105.81 98.74 98.74 197.49 -197.49 -143.4 -192.78 -637.14 637.13 2.35 2.35 -2.35 2.33 -2.33 -2.33 -425.56 427.88 858.15 0.01 710.01 -712.39c-124.59,-169.25 -286.83,-293.87 -484.32,-369.12 0.03,-2.33 0.03,-2.33 -2.35,-2.33z" i:knockout="Off"/>
     <path class="fil3 str0" d="M1537.62 2276.22c0,-197.49 0,-366.74 0,-507.81l536.05 37.62 0 -228.07 -536.05 30.56 0 -317.4 442.01 44.66 0 -228.04 -442.01 42.31 0 -84.64 35.27 -340.92 -225.72 0 35.27 340.92 0 84.64 -442.01 -42.31 0 228.04 442.01 -44.66 0 317.39 -536.05 -30.56 0 228.07 536.05 -37.62c0,148.11 0,326.81 0,531.36" i:knockout="Off"/>
     <path class="fil3 str0" d="M6018.79 1286.41c-87,-61.12 -268.02,-84.64 -536.05,-72.89" i:knockout="Off"/>
     <polyline class="fil3 str0" points="6637.12,2572.45 6637.12,1274.67 6561.9,1213.52 " i:knockout="Off"/>
     <path class="fil3 str0" d="M6561.9 1213.52c-270.38,-11.75 -451.41,11.77 -543.11,72.89" i:knockout="Off"/>
     <line class="fil3 str0" x1="6637.12" y1="2572.45" x2="6561.9" y2= "2511.33"  i:knockout="Off"/>
     <path class="fil3 str0" d="M4410.65 1958.82c188.07,-185.74 282.13,-413.78 282.13,-679.48 0,-265.67 -94.06,-491.36 -282.13,-679.45 -188.09,-188.09 -413.81,-282.13 -679.5,-282.13 -265.67,0 -493.71,94.03 -681.8,282.13 -185.74,188.09 -279.77,413.78 -279.77,679.45 0,265.69 94.03,493.74 279.77,679.48" i:knockout="Off"/>
     <line class="fil3 str0" x1="5407.52" y1="2572.45" x2="5482.74" y2= "2511.33"  i:knockout="Off"/>
     <polyline class="fil3 str0" points="3303.29,3070.89 3728.85,2643.01 3091.68,2003.51 " i:knockout="Off"/>
     <path class="fil3 str0" d="M1537.62 2692.38c0,42.31 0,87 0,131.66 0,963.96 0,2351.09 0,4166.13 -49.37,37.6 -101.1,37.6 -155.18,0 0,-1871.48 0,-3291.55 0,-4257.83" i:knockout="Off"/>
     <polyline class="fil3 str0" points="3303.29,3070.89 3303.29,3557.56 3303.29,6959.6 4161.44,6959.61 4161.44,3557.57 4161.44,3070.9 " i:knockout="Off"/>
     <line class="fil3 str0" x1="6561.9" y1="1213.52" x2="6561.9" y2= "2511.33"  i:knockout="Off"/>
     <polyline class="fil3 str0" points="5482.74,1213.52 5407.52,1274.67 5407.52,2572.45 " i:knockout="Off"/>
     <line class="fil3 str0" x1="5482.74" y1="2511.33" x2="5482.74" y2= "1213.52"  i:knockout="Off"/>
     <path class="fil3 str0" d="M6206.91 2563.08c138.72,-9.39 282.13,-7.06 430.24,9.37" i:knockout="Off"/>
     <line class="fil3 str0" x1="4161.44" y1="3070.89" x2="3303.29" y2= "3070.89"  i:knockout="Off"/>
     <path class="fil3 str0" d="M5407.52 2572.45c150.47,-16.46 296.23,-18.79 439.66,-7.04 4.71,0 11.75,0 16.46,0" i:knockout="Off"/>
     <path class="fil3 str0" d="M6561.9 2511.33c-122.26,-21.14 -246.86,-28.2 -369.12,-21.14" i:knockout="Off"/>
     <path class="fil3 str0" d="M3075.22 1989.41c-197.49,75.22 -357.37,199.84 -481.97,369.12l710.04 712.39" i:knockout="Off"/>
     <path class="fil3 str0" d="M4161.44 3070.89l710.01 -712.39c-124.59,-169.25 -286.83,-293.87 -484.32,-369.12 0,-2.35 0,-2.35 -2.35,-2.35" i:knockout="Off"/>
     <line class="fil3 str0" x1="6018.79" y1="2273.89" x2="6018.79" y2= "1286.41"  i:knockout="Off"/>
     <path class="fil3 str0" d="M5482.74 2511.33c129.33,-23.52 260.96,-28.2 392.64,-16.46" i:knockout="Off"/>
     <line class="fil3 str0" x1="3731.18" y1="2640.63" x2="4368.35" y2= "2003.49"  i:knockout="Off"/>
     <path class="fil3 str0" d="M6032.89 2581.86c0,-25.85 -2.33,-49.37 -4.71,-70.54" i:knockout="Off"/>
     <path class="fil3 str0" d="M5741.37 2664.15c16.46,-51.73 51.73,-79.93 103.45,-87 4.68,0 7.06,0 9.39,0 4.68,-4.71 7.04,-7.06 9.39,-11.75 9.39,-14.1 11.75,-37.62 11.75,-70.54 0,-9.39 0,-18.81 0,-25.88 -4.71,-70.54 21.14,-115.2 70.54,-138.72" i:knockout="Off"/>
     <path class="fil3 str0" d="M6018.79 2433.75c-7.06,-56.41 -16.46,-101.1 -28.2,-134.01" i:knockout="Off"/>
     <path class="fil3 str0" d="M6089.33 2440.82l9.39 58.79 9.39 63.47c2.35,-25.88 2.35,-44.69 0,-63.47 -2.33,-25.88 -7.01,-44.72 -18.78,-58.79" i:knockout="Off"/>
     <path class="fil3 str0" d="M5945.92 2330.3c11.75,-32.89 25.88,-42.33 44.66,-30.56" i:knockout="Off"/>
     <path class="fil3 str0" d="M6028.21 2511.33c-2.35,-28.2 -4.71,-54.05 -9.39,-77.58" i:knockout="Off"/>
     <line class="fil3 str0" x1="5741.37" y1="2664.15" x2="5741.37" y2= "2816.97"  i:knockout="Off"/>
     <path class="fil3 str0" d="M5952.96 2586.57c0,-4.71 0,-9.39 0,-11.75 0,-25.88 0,-49.37 0,-72.89 0,-61.12 -2.33,-119.91 -7.04,-171.64" i:knockout="Off"/>
     <path class="fil3 str0" d="M3702.97 651.62c-7.06,4.71 -11.77,7.04 -16.48,14.1 -14.1,11.75 -21.14,28.2 -18.81,44.66 -2.33,14.1 2.35,25.85 9.39,37.6" i:knockout="Off"/>
     <path class="fil3 str0" d="M3761.76 651.62c-9.39,-4.71 -18.81,-7.06 -30.59,-7.06 -9.39,0 -21.14,2.35 -28.18,7.06" i:knockout="Off"/>
     <path class="fil3 str0" d="M3787.61 748.01c7.04,-11.75 9.39,-23.5 9.39,-37.6 0,-16.48 -7.06,-32.94 -18.81,-44.66 -7.06,-7.06 -11.77,-9.39 -16.46,-14.1" i:knockout="Off"/>
     <path class="fil3 str0" d="M6108.14 2499.58c-2.35,0 -4.68,0 -9.39,0" i:knockout="Off"/>
     <path class="fil3 str0" d="M3550.17 1429.84c-4.71,2.35 -9.39,4.71 -14.1,9.39 -4.71,2.33 -7.06,7.04 -9.39,14.1 0,4.71 -2.35,9.39 -2.35,14.1 0,9.39 4.71,18.81 11.77,25.88 7.04,9.39 16.46,11.75 28.2,11.75 9.39,0 18.81,-2.33 25.88,-11.75 9.42,-7.06 11.75,-16.46 11.75,-25.88 0,-4.71 0,-9.39 -2.33,-14.1 -2.35,-7.06 -4.74,-11.77 -9.42,-14.1" i:knockout="Off"/>
     <path class="fil3 str0" d="M6063.48 2327.97c14.1,39.98 21.14,77.58 25.85,112.84" i:knockout="Off"/>
     <path class="fil3 str0" d="M3590.13 1439.24c-11.75,-7.06 -25.88,-9.39 -39.95,-9.39" i:knockout="Off"/>
     <path class="fil3 str0" d="M3456.11 1455.69c16.46,-14.1 30.56,-23.5 44.66,-32.91 9.39,-4.71 18.81,-9.39 25.88,-11.75 18.81,-4.71 37.6,-4.71 54.05,0 11.75,4.71 23.5,14.1 35.27,23.52 11.75,11.75 23.52,28.2 32.91,44.66" i:knockout="Off"/>
     <path class="fil3 str0" d="M3550.17 1429.84c-16.48,0 -32.91,2.35 -49.4,7.06 -14.1,4.68 -28.2,9.37 -44.66,18.79" i:knockout="Off"/>
     <path class="fil3 str0" d="M6063.48 2327.97c16.46,14.1 47.02,42.31 94.03,84.64 7.04,4.71 18.81,32.91 35.27,77.6 4.71,16.46 9.39,32.91 14.13,51.73 0,4.71 0,11.77 0,21.17 -4.71,25.85 -14.13,54.05 -25.88,94.03 -18.79,49.37 -72.87,89.32 -159.86,119.91l-279.8 39.95" i:knockout="Off"/>
     <path class="fil3 str0" d="M3822.88 1709.61c4.71,-11.75 2.33,-23.52 -2.35,-28.23 -7.06,-9.39 -16.46,-14.1 -25.88,-14.1 -11.75,-2.35 -18.79,-21.14 -23.52,-51.73l0 -169.28 2.35 -16.46 7.04 -47.04" i:knockout="Off"/>
     <path class="fil3 str0" d="M3773.51 1429.84c4.71,-4.71 9.39,-9.39 14.1,-14.1 9.39,-9.42 18.81,-16.46 28.2,-23.52 61.12,-39.98 131.66,-42.33 213.94,-7.06 -84.64,-65.83 -166.93,-68.18 -249.21,-2.35" i:knockout="Off"/>
     <polyline class="fil3 str0" points="3761.76,651.62 3761.76,566.98 3851.08,566.98 3851.08,510.54 3761.76,510.55 3761.76,423.53 3702.97,423.53 3702.97,510.55 3613.62,510.55 3613.62,566.99 3702.97,566.98 3702.97,651.62 " i:knockout="Off"/>
     <path class="fil3 str0" d="M3691.22 1429.84c-4.71,-4.71 -9.39,-9.39 -16.46,-14.1 -7.06,-9.42 -16.46,-16.46 -25.85,-23.52 -61.15,-39.98 -134.01,-42.33 -213.94,-7.06 84.64,-65.83 166.93,-68.18 246.86,-2.35" i:knockout="Off"/>
     <path class="fil3 str0" d="M3813.46 1479.19c28.23,23.52 54.08,35.27 79.93,35.27 25.85,-2.35 42.33,-4.71 51.73,-9.39 9.4,-4.68 28.2,-21.14 61.12,-49.37 -16.46,-14.1 -30.56,-23.5 -44.66,-32.91 -9.39,-4.71 -18.81,-9.39 -25.88,-11.75 -18.81,-4.71 -37.62,-4.71 -51.73,0 -14.1,4.71 -25.88,14.1 -37.6,23.52 -11.74,11.71 -23.49,28.2 -32.91,44.63" i:knockout="Off"/>
     <path class="fil3 str0" d="M3813.46 1479.19c9.42,-9.39 21.17,-18.79 32.94,-28.18 7.04,-4.74 16.46,-9.42 25.85,-11.77 14.1,-7.06 25.88,-9.39 39.98,-9.39 16.48,0 32.91,2.35 49.37,7.06 14.1,4.68 28.2,9.37 44.66,18.79" i:knockout="Off"/>
     <path class="fil3 str0" d="M3912.23 1429.84c4.71,2.35 9.39,4.71 14.1,9.39 4.71,2.33 7.04,7.04 9.39,14.1 0,4.71 2.35,9.39 2.35,14.1 0,9.39 -4.74,18.81 -11.77,25.88 -7.06,9.39 -16.46,11.75 -28.2,11.75 -9.39,0 -18.79,-2.33 -25.88,-11.75 -9.39,-7.06 -11.77,-16.46 -11.77,-25.88 0,-4.71 0,-9.39 2.35,-14.1 2.35,-7.06 4.71,-11.77 9.39,-14.1" i:knockout="Off"/>
     <path class="fil3 str0" d="M6054.08 2299.74c2.33,9.39 7.04,18.81 9.39,28.2" i:knockout="Off"/>
     <path class="fil3 str0" d="M3655.95 771.51c7.04,-9.39 14.1,-18.79 21.14,-23.52l110.52 -0.01c4.71,4.71 11.75,14.13 18.81,23.52" i:knockout="Off"/>
     <path class="fil3 str0" d="M4144.98 1380.47c2.35,-9.42 2.35,-18.81 4.71,-28.23" i:knockout="Off"/>
     <line class="fil3 str0" x1="4154.38" y1="1328.75" x2="4175.55" y2= "1180.61"  i:knockout="Off"/>
     <line class="fil3 str0" x1="4152.05" y1="1328.75" x2="4090.93" y2= "1295.84"  i:knockout="Off"/>
     <path class="fil3 str0" d="M4175.54 1180.6c101.1,-181.03 110.49,-324.46 28.2,-423.2 -117.55,-101.1 -249.21,-96.39 -397.32,14.1" i:knockout="Off"/>
     <path class="fil3 str0" d="M4090.93 1295.83c-96.41,-39.98 -211.61,-61.12 -343.27,-63.47 -131.66,-4.71 -256.28,16.46 -371.48,61.12" i:knockout="Off"/>
     <path class="fil3 str0" d="M4175.54 1180.6c-105.81,-61.12 -228.07,-94.03 -369.12,-98.74l0 -310.36" i:knockout="Off"/>
     <path class="fil3 str0" d="M3289.16 1180.6c103.48,-61.12 225.72,-94.03 366.79,-98.74l0 -310.36" i:knockout="Off"/>
     <path class="fil3 str0" d="M3648.89 1479.19c-9.39,-9.39 -21.17,-18.79 -32.91,-28.18 -7.04,-4.74 -16.46,-9.42 -25.88,-11.77" i:knockout="Off"/>
     <path class="fil3 str0" d="M5990.58 2299.74c9.39,-16.46 18.81,-23.52 28.2,-25.88 11.77,0 21.17,9.39 35.27,25.88" i:knockout="Off"/>
     <path class="fil3 str0" d="M3648.89 1479.19c-28.2,23.52 -54.08,35.27 -79.93,35.27 -25.88,-2.35 -42.31,-4.71 -51.73,-9.39 -9.42,-4.71 -28.23,-21.14 -61.12,-49.37" i:knockout="Off"/>
     <polyline class="fil3 str0" points="5741.37,2664.15 5741.37,2603.03 5123.01,2769.96 " i:knockout="Off"/>
     <path class="fil3 str0" d="M3315.04 1352.24c-2.35,-9.39 -2.35,-16.46 -4.71,-23.5" i:knockout="Off"/>
     <line class="fil3 str0" x1="3310.36" y1="1328.75" x2="3315.07" y2= "1352.25"  i:knockout="Off"/>
     <path class="fil3 str0" d="M3319.75 1380.47c-2.35,-9.42 -4.71,-18.81 -4.71,-28.23" i:knockout="Off"/>
     <path class="fil3 str0" d="M3289.16 1180.6c-103.45,-181.03 -112.84,-324.46 -28.2,-423.2 115.2,-101.1 246.86,-96.39 395,14.1" i:knockout="Off"/>
     <path class="fil3 str0" d="M3049.37 1958.82c9.42,9.39 18.81,18.79 28.23,28.2 0,0 0,0 2.33,0 4.71,4.74 7.06,9.39 11.75,16.48" i:knockout="Off"/>
     <path class="fil3 str0" d="M3091.68 2003.51l-16.46 -14.1c2.35,-2.35 2.35,-2.35 4.71,-2.35 98.74,-37.6 206.9,-65.83 322.08,-79.93" i:knockout="Off"/>
     <polyline class="fil3 str0" points="3150.47,2393.77 2952.98,2196.28 2851.88,2299.73 3049.37,2494.86 2950.63,2593.6 3056.44,2699.41 3155.18,2603.02 3373.86,2824.03 3477.31,2720.58 3256.3,2499.57 3355.04,2400.83 3249.23,2295.02 3150.47,2393.77 " i:knockout="Off"/>
     <path class="fil3 str0" d="M3639.5 1709.61c-2.35,-11.75 -2.35,-23.52 4.71,-28.23 7.04,-9.39 16.46,-14.1 25.88,-14.1 11.75,-2.35 18.81,-21.14 23.52,-51.73l0 -169.28 -2.35 -16.46 -9.39 -47.04" i:knockout="Off"/>
     <path class="fil3 str0" d="M1641.05 2386.73c-2.33,-14.13 -4.68,-28.23 -7.04,-42.33 0,-14.13 -4.71,-25.88 -14.1,-35.27 -21.17,-18.81 -39.98,-30.56 -65.83,-32.94 -4.71,-2.33 -11.77,-2.33 -16.48,0 -25.88,0 -42.31,14.13 -47.02,42.33" i:knockout="Off"/>
     <path class="fil3 str0" d="M1490.6 2318.55c11.75,0 21.14,2.35 28.2,4.71 7.04,7.04 14.1,11.75 18.79,18.81 30.56,30.56 30.56,58.79 0,82.29" i:knockout="Off"/>
     <path class="fil3 str0" d="M4154.38 1328.75c-2.33,0 -2.33,0 -2.33,0" i:knockout="Off"/>
     <path class="fil3 str0" d="M1598.74 2579.51c28.2,-2.35 44.66,-23.52 47.02,-56.44 0,-32.91 0,-61.12 0,-87 -2.35,-18.81 -4.71,-35.27 -4.71,-49.37" i:knockout="Off"/>
     <path class="fil3 str0" d="M1563.5 2617.13c-9.39,0 -16.48,2.35 -25.88,2.35 -58.79,7.06 -110.49,9.39 -155.18,9.39 -9.39,0 -16.46,0 -23.52,0" i:knockout="Off"/>
     <path class="fil3 str0" d="M1490.6 2318.55c-25.88,-7.06 -63.47,-11.77 -108.16,-18.81 -14.1,-2.33 -30.56,-4.71 -47.02,-4.71 -18.81,7.04 -32.91,21.14 -42.31,37.62 -7.06,14.1 -7.06,32.91 0,56.41 -18.81,14.1 -30.59,35.27 -35.27,58.79 -9.39,35.27 -2.35,65.83 21.14,94.03 -11.75,16.46 -14.1,39.95 -4.71,72.89 4.71,14.1 18.81,28.2 37.6,39.95 -7.04,28.23 -2.35,51.75 16.48,63.47 11.75,9.39 28.2,14.13 54.05,14.13 9.39,0 23.5,0 37.62,-2.35 7.06,0 14.1,0 21.17,-2.35 28.2,-7.04 63.47,-18.81 96.39,-35.27 7.06,-2.35 14.1,-9.39 25.88,-28.23 11.75,-16.46 9.39,-32.91 0,-47.02" i:knockout="Off"/>
     <path class="fil3 str0" d="M1575.22 2509c-11.75,2.33 -23.52,7.04 -37.62,9.39 -44.66,11.77 -96.39,14.1 -155.18,11.77 -21.17,0 -42.33,0 -61.15,-4.71" i:knockout="Off"/>
     <path class="fil3 str0" d="M1598.74 2579.51c-9.39,11.75 -21.14,23.52 -35.27,37.6" i:knockout="Off"/>
     <path class="fil3 str0" d="M1575.22 2509c30.56,21.17 39.98,44.66 23.52,70.54" i:knockout="Off"/>
     <polyline class="fil3 str0" points="2339.33,2769.96 1723.36,2603.06 1723.36,3005.07 " i:knockout="Off"/>
     <line class="fil3 str0" x1="1723.36" y1="2603.06" x2="1641.07" y2= "2386.76"  i:knockout="Off"/>
     <path class="fil3 str0" d="M1537.62 2424.36c72.89,16.46 87,47.02 37.62,84.64" i:knockout="Off"/>
     <path class="fil3 str0" d="M1537.62 2824.04c61.15,30.56 124.62,91.68 185.74,181.03" i:knockout="Off"/>
     <path class="fil3 str0" d="M3303.29 3557.57c-131.66,-4.68 -249.21,-51.73 -352.66,-141.08l-23.52 -25.85 -587.77 -620.69" i:knockout="Off"/>
     <path class="fil3 str0" d="M4149.67 1352.24c2.35,-9.39 2.35,-16.46 2.35,-23.5" i:knockout="Off"/>
     <line class="fil3 str0" x1="4149.67" y1="1352.24" x2="4154.38" y2= "1328.74"  i:knockout="Off"/>
     <path class="fil3 str0" d="M2593.26 2358.5c-87,117.55 -171.64,253.92 -253.92,411.45" i:knockout="Off"/>
     <path class="fil3 str0" d="M4060.34 1907.1c117.55,14.1 223.36,39.95 322.1,79.93l2.34 0 -16.46 16.48" i:knockout="Off"/>
     <line class="fil3 str0" x1="3310.36" y1="1328.75" x2="3289.19" y2= "1180.61"  i:knockout="Off"/>
     <path class="fil3 str0" d="M4368.32 2003.51c4.71,-7.06 9.39,-11.75 14.13,-16.48 0,-2.33 0,-2.33 2.33,-2.33 7.06,-7.06 16.46,-16.48 25.88,-25.88" i:knockout="Off"/>
     <polyline class="fil3 str0" points="4612.85,2299.74 4415.36,2494.87 4514.13,2593.61 4405.99,2699.42 4309.58,2603.03 4088.57,2824.04 3987.47,2720.59 4206.12,2499.58 4109.71,2400.84 4215.52,2295.03 4314.26,2393.77 4511.75,2196.28 4612.85,2299.74 " i:knockout="Off"/>
     <path class="fil3 str0" d="M4060.34 1907.1l0 -209.23c7.06,-9.42 11.75,-21.17 16.46,-32.94" i:knockout="Off"/>
     <path class="fil3 str0" d="M4076.8 1664.92c16.46,7.06 32.91,-11.75 49.37,-49.37 42.31,-108.14 49.37,-185.74 18.79,-235.11" i:knockout="Off"/>
     <path class="fil3 str0" d="M4060.34 1907.1l0 96.41c-4.71,117.55 -42.31,192.78 -110.49,225.69 -68.18,28.23 -141.08,42.33 -218.68,37.62 -75.22,4.71 -148.11,-9.39 -216.3,-37.62 -70.54,-32.91 -105.81,-108.14 -112.87,-225.69l0 -96.41" i:knockout="Off"/>
     <path class="fil3 str0" d="M3538.4 1780.15c-44.66,51.73 -56.41,143.4 -37.62,279.77 18.81,-122.26 63.47,-185.74 131.68,-188.07 11.75,0 23.52,-2.35 35.27,-2.35 21.17,-4.71 42.33,-21.17 63.47,-54.08l2.36 0c21.17,32.91 42.33,49.4 61.12,54.08 14.13,0 25.88,2.35 35.27,2.35 70.54,2.35 110.52,70.54 124.62,202.19 23.5,-145.76 16.46,-242.15 -28.2,-293.87" i:knockout="Off"/>
     <path class="fil3 str0" d="M3822.88 1709.61c0,2.33 0,2.33 0,4.68 -2.35,2.35 -2.35,2.35 -7.06,4.71 -2.35,0 -7.06,0 -11.77,2.35 -4.68,-2.35 -7.04,-2.35 -9.39,-4.71 -11.75,-2.35 -21.14,0 -28.2,7.06 -9.39,9.42 -21.14,11.75 -35.27,9.42 -14.1,2.33 -25.85,0 -32.89,-9.42 -9.39,-7.06 -18.81,-9.39 -28.2,-7.06 -4.71,2.35 -7.06,2.35 -9.42,4.71 -4.68,-2.35 -9.39,-2.35 -14.1,-2.35 -2.35,-2.35 -4.71,-2.35 -4.71,-4.71 -2.35,-2.35 -2.35,-2.35 -2.35,-4.68" i:knockout="Off"/>
     <line class="fil3 str0" x1="3731.18" y1="1815.39" x2="3731.18" y2= "1733.13"  i:knockout="Off"/>
     <path class="fil3 str0" d="M3402.01 1907.1l0 -209.23c-4.68,-9.42 -9.37,-21.17 -14.08,-32.94" i:knockout="Off"/>
     <path class="fil3 str0" d="M3538.4 1780.15c25.88,-30.56 58.79,-54.08 101.1,-70.54" i:knockout="Off"/>
     <polyline class="fil3 str0" points="3731.18,2640.63 3728.85,2642.98 3731.18,2645.31 3733.53,2642.98 3731.18,2640.63 " i:knockout="Off"/>
     <path class="fil3 str0" d="M3926.33 1780.15c-25.88,-30.56 -61.12,-54.08 -103.45,-70.54" i:knockout="Off"/>
     <polyline class="fil3 str0" points="3804.07,3388.29 3660.66,3388.29 3660.66,3668.06 3521.97,3668.06 3521.97,3818.56 3658.31,3818.55 " i:knockout="Off"/>
     <line class="fil3 str0" x1="3521.94" y1="3668.06" x2="3521.94" y2= "3818.56"  i:knockout="Off"/>
     <line class="fil3 str0" x1="3804.07" y1="4128.88" x2="3804.07" y2= "3818.55"  i:knockout="Off"/>
     <line class="fil3 str0" x1="3804.07" y1="3668.06" x2="3804.07" y2= "3388.29"  i:knockout="Off"/>
     <polyline class="fil3 str0" points="3804.07,3818.55 3942.79,3818.55 3942.79,3668.05 3804.07,3668.06 " i:knockout="Off"/>
     <path class="fil3 str0" d="M4161.44 3557.57c129.3,-4.68 246.86,-51.73 350.31,-141.08l25.88 -25.85 585.42 -620.69" i:knockout="Off"/>
     <path class="fil3 str0" d="M5123.02 2769.96c-82.26,-157.53 -166.93,-293.87 -251.57,-411.45" i:knockout="Off"/>
     <path class="fil3 str0" d="M4076.8 1664.92c25.88,-63.47 49.37,-157.51 68.18,-284.45" i:knockout="Off"/>
     <path class="fil3 str0" d="M4090.93 1295.83c47.02,206.9 -9.39,369.12 -164.6,484.32" i:knockout="Off"/>
     <path class="fil3 str0" d="M3387.93 1664.92c-28.2,-63.47 -49.4,-157.51 -68.18,-284.45" i:knockout="Off"/>
     <path class="fil3 str0" d="M3387.93 1664.92c-16.48,7.06 -32.94,-11.75 -49.4,-49.37 -44.66,-108.14 -49.37,-185.74 -18.79,-235.11" i:knockout="Off"/>
     <path class="fil3 str0" d="M3376.16 1293.45c-16.46,-2.33 -37.62,9.39 -65.83,35.27" i:knockout="Off"/>
     <path class="fil3 str0" d="M3376.16 1293.45c-49.37,206.9 4.71,371.48 162.22,486.7" i:knockout="Off"/>
     <line class="fil3 str0" x1="5198.29" y1="4321.69" x2="4577.58" y2= "4321.69"  i:knockout="Off"/>
     <polyline class="fil3 str0" points="3658.28,3818.55 3658.28,4128.88 3660.64,4128.88 " i:knockout="Off"/>
     <line class="fil3 str0" x1="3660.64" y1="4128.88" x2="3804.04" y2= "4128.88"  i:knockout="Off"/>
     <polyline class="fil3 str0" points="3660.64,5083.45 3658.28,5083.45 3658.28,5360.87 " i:knockout="Off"/>
     <line class="fil3 str0" x1="3804.07" y1="5083.45" x2="3660.66" y2= "5083.45"  i:knockout="Off"/>
     <line class="fil3 str0" x1="3942.76" y1="5511.33" x2="3942.76" y2= "5360.86"  i:knockout="Off"/>
     <line class="fil3 str0" x1="3521.94" y1="5360.86" x2="3521.94" y2= "5511.33"  i:knockout="Off"/>
     <polyline class="fil3 str0" points="3658.28,5360.86 3521.94,5360.86 3521.94,5511.33 3660.64,5511.33 3660.64,5821.69 3804.04,5821.69 " i:knockout="Off"/>
     <line class="fil3 str0" x1="3804.07" y1="5360.86" x2="3804.07" y2= "5083.44"  i:knockout="Off"/>
     <line class="fil3 str0" x1="3804.07" y1="5821.69" x2="3804.07" y2= "5511.33"  i:knockout="Off"/>
     <line class="fil3 str0" x1="3942.76" y1="5360.86" x2="3804.04" y2= "5360.86"  i:knockout="Off"/>
     <line class="fil3 str0" x1="3804.07" y1="5511.33" x2="3942.79" y2= "5511.33"  i:knockout="Off"/>
     <polyline class="fil3 str0" points="1723.36,3005.07 1723.36,4321.69 2266.44,4321.69 " i:knockout="Off"/>
     <line class="fil3 str0" x1="2266.44" y1="4321.69" x2="2887.13" y2= "4321.69"  i:knockout="Off"/>
     <path class="fil3 str0" d="M2762.54 7340.5c51.73,21.14 112.84,37.6 185.74,54.05" i:knockout="Off"/>
     <polyline class="fil3 str0" points="2927.11,3390.67 2887.13,4321.69 2783.68,6849.12 2762.51,7340.5 " i:knockout="Off"/>
     <path class="fil3 str0" d="M3347.95 7458.06c2.35,0 2.35,0 4.71,0 134.01,14.1 260.96,16.46 378.51,11.75 117.55,4.68 244.53,2.35 380.89,-11.75 0,0 2.35,0 4.71,0" i:knockout="Off"/>
     <path class="fil3 str0" d="M2976.48 7810.69c-2.35,7.06 -2.35,11.77 -2.35,18.81 -2.33,23.52 7.06,37.62 23.52,47.02 2.35,0 4.71,0 9.39,2.35 2.35,0 9.39,0 18.81,4.71 11.75,2.35 28.23,2.35 49.37,-2.33 21.14,-2.35 49.37,-14.13 84.64,-35.27 32.91,-18.81 58.79,-42.33 75.25,-68.18 14.08,-25.85 30.56,-49.37 47.02,-75.22 16.46,-25.88 32.91,-72.89 47.02,-143.43 9.39,-37.6 14.1,-72.87 18.79,-101.1" i:knockout="Off"/>
     <path class="fil3 str0" d="M3035.27 7711.95c-16.48,32.91 -32.94,58.76 -47.02,75.25 -4.71,7.06 -9.42,14.1 -11.75,23.5" i:knockout="Off"/>
     <path class="fil3 str0" d="M2948.27 7394.56c141.08,28.23 275.06,49.37 399.68,63.47" i:knockout="Off"/>
     <path class="fil3 str0" d="M2948.27 7394.56c-58.79,211.61 -49.37,352.66 28.2,416.14" i:knockout="Off"/>
     <path class="fil3 str0" d="M2266.44 4321.69l-141.05 2111.3c155.18,296.25 376.16,434.95 658.31,416.14" i:knockout="Off"/>
     <polyline class="fil3 str0" points="4702.2,7340.5 4681.03,6849.12 4577.58,4321.69 4537.63,3390.67 " i:knockout="Off"/>
     <path class="fil3 str0" d="M4516.46 7394.56c70.54,-16.48 131.66,-32.91 185.74,-54.05" i:knockout="Off"/>
     <path class="fil3 str0" d="M4116.78 7458.06c2.33,28.2 9.39,63.47 18.81,101.1 14.1,70.54 28.2,117.55 44.66,143.43 16.46,25.88 32.91,49.37 49.37,75.22 14.13,25.85 39.98,49.37 75.25,68.18 35.27,21.14 63.47,32.91 84.64,35.27 21.17,4.68 37.62,4.68 47.02,2.33 11.75,-4.71 18.81,-4.71 21.17,-4.71 2.33,-2.35 4.71,-2.35 9.39,-2.35 16.46,-9.39 23.52,-23.52 23.52,-47.02 0,-7.04 -2.35,-11.75 -2.35,-18.81" i:knockout="Off"/>
     <path class="fil3 str0" d="M4429.46 7711.95c16.48,32.91 30.56,58.76 44.66,75.25 7.06,7.06 11.77,14.1 14.1,23.5" i:knockout="Off"/>
     <path class="fil3 str0" d="M4488.23 7810.69c75.25,-63.47 84.67,-204.52 28.23,-416.14" i:knockout="Off"/>
     <path class="fil3 str0" d="M4516.46 7394.56c-141.08,28.23 -275.09,49.37 -399.68,63.47" i:knockout="Off"/>
     <path class="fil3 str0" d="M4681.03 6849.09c282.15,18.81 500.78,-119.88 658.31,-416.14l-141.05 -2111.3" i:knockout="Off"/>
     <polyline class="fil3 str0" points="5198.29,4321.69 5741.37,4321.69 5741.37,2816.98 " i:knockout="Off"/>
     <line class="fil3 str0" x1="1537.62" y1="2424.36" x2="1337.78" y2= "2424.36"  i:knockout="Off"/>
    </g>
   </g>
   <path class="fil4" d="M2690.61 8257.31c167.99,57.16 336.02,100.33 504.32,129.5 168.47,29.19 336.95,44.39 505.68,45.57 32.93,-0.14 65.85,-0.1 98.78,-0.1 167.56,-1.06 335.46,-16.26 503.93,-45.45 168.39,-29.18 336.98,-72.35 505.99,-129.46l4.59 -1.65c66.75,-23.03 140.1,-48.33 212.77,-77.85l1.18 -0.4c707.43,-248.45 1261.75,-642.36 1662.6,-1181.38 401.19,-539.48 649.19,-1224.87 743.68,-2055.83 6.37,-55.99 7.96,-110 7.96,-166.27l0 -4706.31 -7384.18 0 0 4706.39c0,56.3 1.63,110.36 7.98,166.38 94.49,830.93 341.93,1516.29 742.88,2055.75 400.56,538.95 954.85,932.81 1663.38,1181.24l1.18 0.4c37.93,15.4 74.62,29.4 110.21,42.32 37.42,13.58 72.86,25.81 106.87,37.15l-7.81 23.63 8.01 -23.63zm495.92 178.72c-170.83,-29.6 -341.4,-73.43 -511.94,-131.46 -36.43,-12.21 -72.67,-24.69 -108.05,-37.53 -37.26,-13.53 -74.68,-27.78 -111.97,-42.92 -717.62,-251.86 -1279.39,-651.38 -1685.84,-1198.24 -406.3,-546.67 -656.94,-1240.11 -752.44,-2079.97 -6.53,-57.49 -8.38,-114.04 -8.38,-171.84l0 -4756.39 7484.18 0 0 4756.31c0,57.76 -1.82,114.28 -8.36,171.73 -95.5,839.9 -346.69,1533.37 -753.24,2080.05 -406.74,546.94 -968.54,946.5 -1685.07,1198.36 -74.36,30.23 -148.15,55.69 -215.3,78.85l-4.81 1.59c-171.79,58.06 -342.92,101.9 -513.59,131.48 -170.61,29.57 -341.27,44.95 -512.23,46.13 -0.16,0.16 -98.77,0.21 -98.98,0 -172.13,-1.2 -343.37,-16.58 -513.98,-46.15z"/>
  </g>
 </g>
</svg>
